<svg xmlns="http://www.w3.org/2000/svg" viewBox="0 0 64 64" role="img" aria-label="Kflix">
  <defs>
    <linearGradient id="bg" x1="10" y1="6" x2="56" y2="60" gradientUnits="userSpaceOnUse">
      <stop offset="0" stop-color="#1b1c22"/>
      <stop offset="0.52" stop-color="#0c0d10"/>
      <stop offset="1" stop-color="#15110f"/>
    </linearGradient>
    <linearGradient id="accent" x1="15" y1="9" x2="48" y2="55" gradientUnits="userSpaceOnUse">
      <stop offset="0" stop-color="#f16f78"/>
      <stop offset="0.58" stop-color="#be3541"/>
      <stop offset="1" stop-color="#7f1d28"/>
    </linearGradient>
    <linearGradient id="warm" x1="23" y1="16" x2="44" y2="47" gradientUnits="userSpaceOnUse">
      <stop offset="0" stop-color="#f0c98a"/>
      <stop offset="1" stop-color="#d6a35c"/>
    </linearGradient>
    <filter id="softShadow" x="-20%" y="-20%" width="140%" height="140%" color-interpolation-filters="sRGB">
      <feDropShadow dx="0" dy="4" stdDeviation="4" flood-color="#030405" flood-opacity="0.42"/>
    </filter>
  </defs>
  <rect width="64" height="64" rx="16" fill="url(#bg)"/>
  <path d="M7 48.5C20.2 54.8 41.8 56.4 57 45.7V64H7V48.5Z" fill="#be3541" opacity="0.14"/>
  <path d="M15 12H31C44.3 12 53 20.1 53 32C53 43.8 44.1 52 31 52H15V12Z" fill="url(#accent)" filter="url(#softShadow)"/>
  <path d="M25 18V46" stroke="#fff8f2" stroke-width="6" stroke-linecap="round"/>
  <path d="M25.5 32L42.5 19.5" stroke="#fff8f2" stroke-width="6" stroke-linecap="round" stroke-linejoin="round"/>
  <path d="M25.5 32L43.5 45" stroke="#fff8f2" stroke-width="6" stroke-linecap="round" stroke-linejoin="round"/>
  <path d="M16 17H21V22H16V17ZM16 29.5H21V34.5H16V29.5ZM16 42H21V47H16V42Z" fill="#2a1116" opacity="0.78"/>
  <path d="M36.5 25.2C35.2 24.4 33.5 25.3 33.5 26.8V37.2C33.5 38.7 35.2 39.6 36.5 38.8L44.5 33.6C45.7 32.8 45.7 31.2 44.5 30.4L36.5 25.2Z" fill="url(#warm)"/>
  <path d="M15 12H31C44.3 12 53 20.1 53 32" fill="none" stroke="#ffffff" stroke-opacity="0.14" stroke-width="2"/>
</svg>
